<?xml version="1.0" encoding="iso-8859-1"?>
<!-- Uploaded to: SVG Repo, www.svgrepo.com, Generator: SVG Repo Mixer Tools -->
<svg fill="#bdbdbd" version="1.1" id="Layer_1" xmlns="http://www.w3.org/2000/svg" xmlns:xlink="http://www.w3.org/1999/xlink" 
	 viewBox="0 0 485 485" xml:space="preserve">
<g>
	<path d="M0,0v485h485V0H0z M455,455H30V30h425V455z"/>
	<path d="M242.5,388.003c80.23,0,145.503-65.272,145.503-145.503S322.73,96.997,242.5,96.997S96.997,162.269,96.997,242.5
		S162.27,388.003,242.5,388.003z M242.5,126.997c63.688,0,115.503,51.815,115.503,115.503S306.188,358.003,242.5,358.003
		S126.997,306.189,126.997,242.5S178.812,126.997,242.5,126.997z"/>
	<rect x="183.604" y="222.5" width="30" height="40"/>
	<rect x="270.21" y="222.5" width="30" height="40"/>
</g>
</svg>